<mxfile host="65bd71144e">
    <diagram id="fiNyn3sUhUGYPqvvuMMr" name="Page-1">
        <mxGraphModel dx="972" dy="516" grid="1" gridSize="10" guides="1" tooltips="1" connect="1" arrows="1" fold="1" page="1" pageScale="1" pageWidth="1169" pageHeight="827" math="0" shadow="0">
            <root>
                <mxCell id="0"/>
                <mxCell id="1" parent="0"/>
                <mxCell id="cLuFIFP1AD068deTDGgT-3" value="" style="edgeStyle=orthogonalEdgeStyle;rounded=0;orthogonalLoop=1;jettySize=auto;html=1;" parent="1" source="cLuFIFP1AD068deTDGgT-1" target="cLuFIFP1AD068deTDGgT-2" edge="1">
                    <mxGeometry relative="1" as="geometry"/>
                </mxCell>
                <mxCell id="cLuFIFP1AD068deTDGgT-1" value="START" style="ellipse;whiteSpace=wrap;html=1;" parent="1" vertex="1">
                    <mxGeometry x="380" y="90" width="100" height="60" as="geometry"/>
                </mxCell>
                <mxCell id="cLuFIFP1AD068deTDGgT-5" value="" style="edgeStyle=orthogonalEdgeStyle;rounded=0;orthogonalLoop=1;jettySize=auto;html=1;" parent="1" source="cLuFIFP1AD068deTDGgT-2" target="cLuFIFP1AD068deTDGgT-4" edge="1">
                    <mxGeometry relative="1" as="geometry"/>
                </mxCell>
                <mxCell id="cLuFIFP1AD068deTDGgT-2" value="Running express app" style="whiteSpace=wrap;html=1;" parent="1" vertex="1">
                    <mxGeometry x="370" y="180" width="120" height="60" as="geometry"/>
                </mxCell>
                <mxCell id="cLuFIFP1AD068deTDGgT-7" value="" style="edgeStyle=orthogonalEdgeStyle;rounded=0;orthogonalLoop=1;jettySize=auto;html=1;" parent="1" source="cLuFIFP1AD068deTDGgT-4" target="cLuFIFP1AD068deTDGgT-6" edge="1">
                    <mxGeometry relative="1" as="geometry"/>
                </mxCell>
                <mxCell id="cLuFIFP1AD068deTDGgT-4" value="INPUT route&lt;br&gt;http://localhost:5000/api/auth/register" style="shape=parallelogram;perimeter=parallelogramPerimeter;whiteSpace=wrap;html=1;fixedSize=1;" parent="1" vertex="1">
                    <mxGeometry x="310" y="278" width="240" height="60" as="geometry"/>
                </mxCell>
                <mxCell id="cLuFIFP1AD068deTDGgT-13" value="" style="edgeStyle=orthogonalEdgeStyle;rounded=0;orthogonalLoop=1;jettySize=auto;html=1;" parent="1" source="cLuFIFP1AD068deTDGgT-6" target="cLuFIFP1AD068deTDGgT-12" edge="1">
                    <mxGeometry relative="1" as="geometry"/>
                </mxCell>
                <mxCell id="cLuFIFP1AD068deTDGgT-6" value="INPUT email, password, phone&lt;br&gt;with&lt;br&gt;REQUEST BODY" style="shape=parallelogram;perimeter=parallelogramPerimeter;whiteSpace=wrap;html=1;fixedSize=1;" parent="1" vertex="1">
                    <mxGeometry x="320" y="360" width="220" height="60" as="geometry"/>
                </mxCell>
                <mxCell id="cLuFIFP1AD068deTDGgT-15" value="" style="edgeStyle=orthogonalEdgeStyle;rounded=0;orthogonalLoop=1;jettySize=auto;html=1;" parent="1" source="cLuFIFP1AD068deTDGgT-12" target="cLuFIFP1AD068deTDGgT-14" edge="1">
                    <mxGeometry relative="1" as="geometry"/>
                </mxCell>
                <mxCell id="cLuFIFP1AD068deTDGgT-12" value="access to dizzy_coffee&lt;br&gt;database" style="shape=cylinder3;whiteSpace=wrap;html=1;boundedLbl=1;backgroundOutline=1;size=15;" parent="1" vertex="1">
                    <mxGeometry x="390" y="450" width="80" height="90" as="geometry"/>
                </mxCell>
                <mxCell id="cLuFIFP1AD068deTDGgT-23" value="" style="edgeStyle=orthogonalEdgeStyle;rounded=0;orthogonalLoop=1;jettySize=auto;html=1;" parent="1" source="cLuFIFP1AD068deTDGgT-14" target="cLuFIFP1AD068deTDGgT-21" edge="1">
                    <mxGeometry relative="1" as="geometry"/>
                </mxCell>
                <mxCell id="cLuFIFP1AD068deTDGgT-14" value="SELECT email FROM public.users WHERE email = $1" style="whiteSpace=wrap;html=1;" parent="1" vertex="1">
                    <mxGeometry x="360" y="570" width="140" height="60" as="geometry"/>
                </mxCell>
                <mxCell id="cLuFIFP1AD068deTDGgT-16" value="TRUE" style="edgeStyle=orthogonalEdgeStyle;rounded=0;orthogonalLoop=1;jettySize=auto;html=1;" parent="1" source="cLuFIFP1AD068deTDGgT-17" target="cLuFIFP1AD068deTDGgT-18" edge="1">
                    <mxGeometry relative="1" as="geometry"/>
                </mxCell>
                <mxCell id="cLuFIFP1AD068deTDGgT-28" value="FALSE" style="edgeStyle=orthogonalEdgeStyle;rounded=0;orthogonalLoop=1;jettySize=auto;html=1;" parent="1" source="cLuFIFP1AD068deTDGgT-17" target="cLuFIFP1AD068deTDGgT-27" edge="1">
                    <mxGeometry relative="1" as="geometry"/>
                </mxCell>
                <mxCell id="cLuFIFP1AD068deTDGgT-17" value="rowCount&amp;nbsp; &amp;gt; 0" style="rhombus;whiteSpace=wrap;html=1;" parent="1" vertex="1">
                    <mxGeometry x="365" y="800" width="130" height="80" as="geometry"/>
                </mxCell>
                <mxCell id="cLuFIFP1AD068deTDGgT-45" value="" style="edgeStyle=orthogonalEdgeStyle;rounded=0;orthogonalLoop=1;jettySize=auto;html=1;" parent="1" source="cLuFIFP1AD068deTDGgT-18" target="cLuFIFP1AD068deTDGgT-44" edge="1">
                    <mxGeometry relative="1" as="geometry"/>
                </mxCell>
                <mxCell id="cLuFIFP1AD068deTDGgT-18" value="RESPONSE&amp;nbsp;&lt;br&gt;status: 409&lt;br&gt;message: &quot;Email is already exists&quot;" style="shape=parallelogram;perimeter=parallelogramPerimeter;whiteSpace=wrap;html=1;fixedSize=1;" parent="1" vertex="1">
                    <mxGeometry x="550" y="810" width="200" height="60" as="geometry"/>
                </mxCell>
                <mxCell id="cLuFIFP1AD068deTDGgT-20" value="FALSE" style="edgeStyle=orthogonalEdgeStyle;rounded=0;orthogonalLoop=1;jettySize=auto;html=1;" parent="1" source="cLuFIFP1AD068deTDGgT-21" target="cLuFIFP1AD068deTDGgT-22" edge="1">
                    <mxGeometry relative="1" as="geometry"/>
                </mxCell>
                <mxCell id="cLuFIFP1AD068deTDGgT-24" value="TRUE" style="edgeStyle=orthogonalEdgeStyle;rounded=0;orthogonalLoop=1;jettySize=auto;html=1;" parent="1" source="cLuFIFP1AD068deTDGgT-21" target="cLuFIFP1AD068deTDGgT-17" edge="1">
                    <mxGeometry relative="1" as="geometry"/>
                </mxCell>
                <mxCell id="cLuFIFP1AD068deTDGgT-21" value="is query correct?" style="rhombus;whiteSpace=wrap;html=1;" parent="1" vertex="1">
                    <mxGeometry x="365" y="670" width="130" height="80" as="geometry"/>
                </mxCell>
                <mxCell id="cLuFIFP1AD068deTDGgT-46" style="edgeStyle=orthogonalEdgeStyle;rounded=0;orthogonalLoop=1;jettySize=auto;html=1;entryX=0.5;entryY=0;entryDx=0;entryDy=0;" parent="1" source="cLuFIFP1AD068deTDGgT-22" target="cLuFIFP1AD068deTDGgT-44" edge="1">
                    <mxGeometry relative="1" as="geometry"/>
                </mxCell>
                <mxCell id="cLuFIFP1AD068deTDGgT-22" value="RESPONSE&amp;nbsp;&lt;br&gt;status: 500&lt;br&gt;message: &quot;Server internal error&quot;" style="shape=parallelogram;perimeter=parallelogramPerimeter;whiteSpace=wrap;html=1;fixedSize=1;" parent="1" vertex="1">
                    <mxGeometry x="570" y="680" width="160" height="60" as="geometry"/>
                </mxCell>
                <mxCell id="cLuFIFP1AD068deTDGgT-30" value="FALSE" style="edgeStyle=orthogonalEdgeStyle;rounded=0;orthogonalLoop=1;jettySize=auto;html=1;" parent="1" source="cLuFIFP1AD068deTDGgT-27" target="cLuFIFP1AD068deTDGgT-29" edge="1">
                    <mxGeometry relative="1" as="geometry"/>
                </mxCell>
                <mxCell id="cLuFIFP1AD068deTDGgT-55" value="" style="edgeStyle=orthogonalEdgeStyle;rounded=0;orthogonalLoop=1;jettySize=auto;html=1;" parent="1" source="cLuFIFP1AD068deTDGgT-27" target="cLuFIFP1AD068deTDGgT-54" edge="1">
                    <mxGeometry relative="1" as="geometry"/>
                </mxCell>
                <mxCell id="cLuFIFP1AD068deTDGgT-27" value="email == &quot;&quot;&lt;br&gt;OR&lt;br&gt;password == &quot;&quot;&lt;br&gt;OR&lt;br&gt;phone == &quot;&quot;" style="rhombus;whiteSpace=wrap;html=1;" parent="1" vertex="1">
                    <mxGeometry x="323.75" y="920" width="212.5" height="136.25" as="geometry"/>
                </mxCell>
                <mxCell id="cLuFIFP1AD068deTDGgT-47" style="edgeStyle=orthogonalEdgeStyle;rounded=0;orthogonalLoop=1;jettySize=auto;html=1;entryX=0.5;entryY=1;entryDx=0;entryDy=0;" parent="1" source="cLuFIFP1AD068deTDGgT-29" target="cLuFIFP1AD068deTDGgT-44" edge="1">
                    <mxGeometry relative="1" as="geometry"/>
                </mxCell>
                <mxCell id="cLuFIFP1AD068deTDGgT-29" value="RESPONSE&lt;br&gt;status:400&lt;br&gt;message: &quot;field email&lt;br&gt;&amp;nbsp;or password&lt;br&gt;&amp;nbsp;or phone is require&quot;" style="shape=parallelogram;perimeter=parallelogramPerimeter;whiteSpace=wrap;html=1;fixedSize=1;" parent="1" vertex="1">
                    <mxGeometry x="585" y="943.13" width="230" height="90" as="geometry"/>
                </mxCell>
                <mxCell id="cLuFIFP1AD068deTDGgT-44" value="A" style="ellipse;whiteSpace=wrap;html=1;aspect=fixed;" parent="1" vertex="1">
                    <mxGeometry x="840" y="815" width="50" height="50" as="geometry"/>
                </mxCell>
                <mxCell id="cLuFIFP1AD068deTDGgT-50" value="&lt;h1&gt;REGISTER USERS ROUTE&lt;/h1&gt;" style="text;html=1;strokeColor=none;fillColor=none;spacing=5;spacingTop=-20;whiteSpace=wrap;overflow=hidden;rounded=0;align=center;" parent="1" vertex="1">
                    <mxGeometry x="335" y="20" width="190" height="70" as="geometry"/>
                </mxCell>
                <mxCell id="cLuFIFP1AD068deTDGgT-57" value="" style="edgeStyle=orthogonalEdgeStyle;rounded=0;orthogonalLoop=1;jettySize=auto;html=1;" parent="1" source="cLuFIFP1AD068deTDGgT-54" target="cLuFIFP1AD068deTDGgT-56" edge="1">
                    <mxGeometry relative="1" as="geometry"/>
                </mxCell>
                <mxCell id="cLuFIFP1AD068deTDGgT-54" value="hashing password with bcrypt" style="whiteSpace=wrap;html=1;" parent="1" vertex="1">
                    <mxGeometry x="370" y="1080.005" width="120" height="60" as="geometry"/>
                </mxCell>
                <mxCell id="cLuFIFP1AD068deTDGgT-59" value="FALSE" style="edgeStyle=orthogonalEdgeStyle;rounded=0;orthogonalLoop=1;jettySize=auto;html=1;" parent="1" source="cLuFIFP1AD068deTDGgT-56" target="cLuFIFP1AD068deTDGgT-58" edge="1">
                    <mxGeometry relative="1" as="geometry"/>
                </mxCell>
                <mxCell id="cLuFIFP1AD068deTDGgT-62" value="" style="edgeStyle=orthogonalEdgeStyle;rounded=0;orthogonalLoop=1;jettySize=auto;html=1;" parent="1" source="cLuFIFP1AD068deTDGgT-56" target="cLuFIFP1AD068deTDGgT-61" edge="1">
                    <mxGeometry relative="1" as="geometry"/>
                </mxCell>
                <mxCell id="cLuFIFP1AD068deTDGgT-56" value="hashing password is success?" style="rhombus;whiteSpace=wrap;html=1;" parent="1" vertex="1">
                    <mxGeometry x="350" y="1180" width="160" height="80" as="geometry"/>
                </mxCell>
                <mxCell id="cLuFIFP1AD068deTDGgT-60" style="edgeStyle=orthogonalEdgeStyle;rounded=0;orthogonalLoop=1;jettySize=auto;html=1;" parent="1" edge="1">
                    <mxGeometry relative="1" as="geometry">
                        <mxPoint x="865" y="990" as="targetPoint"/>
                        <mxPoint x="785" y="1220" as="sourcePoint"/>
                    </mxGeometry>
                </mxCell>
                <mxCell id="cLuFIFP1AD068deTDGgT-58" value="RESPONSE&amp;nbsp;&lt;br&gt;status: 500&lt;br&gt;message: &lt;br&gt;&quot;Hashing password is failed&quot;" style="shape=parallelogram;perimeter=parallelogramPerimeter;whiteSpace=wrap;html=1;fixedSize=1;" parent="1" vertex="1">
                    <mxGeometry x="580" y="1190" width="210" height="60" as="geometry"/>
                </mxCell>
                <mxCell id="cLuFIFP1AD068deTDGgT-64" value="" style="edgeStyle=orthogonalEdgeStyle;rounded=0;orthogonalLoop=1;jettySize=auto;html=1;" parent="1" source="cLuFIFP1AD068deTDGgT-61" target="cLuFIFP1AD068deTDGgT-63" edge="1">
                    <mxGeometry relative="1" as="geometry"/>
                </mxCell>
                <mxCell id="cLuFIFP1AD068deTDGgT-61" value="access to dizzy_coffee&lt;br&gt;database" style="shape=cylinder3;whiteSpace=wrap;html=1;boundedLbl=1;backgroundOutline=1;size=15;" parent="1" vertex="1">
                    <mxGeometry x="390" y="1290" width="80" height="90" as="geometry"/>
                </mxCell>
                <mxCell id="cLuFIFP1AD068deTDGgT-66" value="" style="edgeStyle=orthogonalEdgeStyle;rounded=0;orthogonalLoop=1;jettySize=auto;html=1;" parent="1" source="cLuFIFP1AD068deTDGgT-63" target="cLuFIFP1AD068deTDGgT-65" edge="1">
                    <mxGeometry relative="1" as="geometry"/>
                </mxCell>
                <mxCell id="cLuFIFP1AD068deTDGgT-63" value="INSERT INTO public.users&lt;br&gt;(email, password, phone)&lt;br&gt;VALUES&lt;br&gt;($1, $2, $3)&lt;br&gt;RETURNING email, phone" style="whiteSpace=wrap;html=1;" parent="1" vertex="1">
                    <mxGeometry x="340" y="1420" width="180" height="100" as="geometry"/>
                </mxCell>
                <mxCell id="cLuFIFP1AD068deTDGgT-68" value="FALSE" style="edgeStyle=orthogonalEdgeStyle;rounded=0;orthogonalLoop=1;jettySize=auto;html=1;" parent="1" source="cLuFIFP1AD068deTDGgT-65" target="cLuFIFP1AD068deTDGgT-67" edge="1">
                    <mxGeometry relative="1" as="geometry"/>
                </mxCell>
                <mxCell id="cLuFIFP1AD068deTDGgT-70" value="" style="edgeStyle=orthogonalEdgeStyle;rounded=0;orthogonalLoop=1;jettySize=auto;html=1;" parent="1" source="cLuFIFP1AD068deTDGgT-65" target="cLuFIFP1AD068deTDGgT-69" edge="1">
                    <mxGeometry relative="1" as="geometry"/>
                </mxCell>
                <mxCell id="cLuFIFP1AD068deTDGgT-65" value="is query correct ?" style="rhombus;whiteSpace=wrap;html=1;" parent="1" vertex="1">
                    <mxGeometry x="355" y="1560" width="150" height="80" as="geometry"/>
                </mxCell>
                <mxCell id="cLuFIFP1AD068deTDGgT-73" value="" style="edgeStyle=orthogonalEdgeStyle;rounded=0;orthogonalLoop=1;jettySize=auto;html=1;" parent="1" source="cLuFIFP1AD068deTDGgT-67" target="cLuFIFP1AD068deTDGgT-71" edge="1">
                    <mxGeometry relative="1" as="geometry"/>
                </mxCell>
                <mxCell id="cLuFIFP1AD068deTDGgT-67" value="RESPONSE&lt;br&gt;status: 500&lt;br&gt;message: &quot;server intenal error&quot;" style="shape=parallelogram;perimeter=parallelogramPerimeter;whiteSpace=wrap;html=1;fixedSize=1;" parent="1" vertex="1">
                    <mxGeometry x="580" y="1570" width="160" height="60" as="geometry"/>
                </mxCell>
                <mxCell id="cLuFIFP1AD068deTDGgT-72" value="" style="edgeStyle=orthogonalEdgeStyle;rounded=0;orthogonalLoop=1;jettySize=auto;html=1;" parent="1" source="cLuFIFP1AD068deTDGgT-69" target="cLuFIFP1AD068deTDGgT-71" edge="1">
                    <mxGeometry relative="1" as="geometry"/>
                </mxCell>
                <mxCell id="cLuFIFP1AD068deTDGgT-69" value="RESPONSE&lt;br&gt;status: 201&lt;br&gt;message: &quot;Register successfuly&quot;" style="shape=parallelogram;perimeter=parallelogramPerimeter;whiteSpace=wrap;html=1;fixedSize=1;" parent="1" vertex="1">
                    <mxGeometry x="345" y="1680" width="170" height="60" as="geometry"/>
                </mxCell>
                <mxCell id="cLuFIFP1AD068deTDGgT-71" value="STOP" style="ellipse;whiteSpace=wrap;html=1;" parent="1" vertex="1">
                    <mxGeometry x="600" y="1680" width="120" height="60" as="geometry"/>
                </mxCell>
                <mxCell id="cLuFIFP1AD068deTDGgT-75" value="" style="edgeStyle=orthogonalEdgeStyle;rounded=0;orthogonalLoop=1;jettySize=auto;html=1;" parent="1" source="cLuFIFP1AD068deTDGgT-74" target="cLuFIFP1AD068deTDGgT-71" edge="1">
                    <mxGeometry relative="1" as="geometry"/>
                </mxCell>
                <mxCell id="cLuFIFP1AD068deTDGgT-74" value="A" style="ellipse;whiteSpace=wrap;html=1;aspect=fixed;" parent="1" vertex="1">
                    <mxGeometry x="770" y="1685" width="50" height="50" as="geometry"/>
                </mxCell>
            </root>
        </mxGraphModel>
    </diagram>
</mxfile>